# Alias OBJ Model File
# Exported from SketchUp, (c) 2000-2012 Trimble Navigation Limited
# File units = meters

mtllib Bed.mtl

g Mesh1 Group1 Model

usemtl FrontColor
v 0.868986 0.7 -1.8659
vt -34.2121 27.5591
vn 0 0 -1
v 0.743979 0.7 -1.8659
vt -29.2905 27.5591
v 0.743979 0.8 -1.8659
vt -29.2905 31.4961
v 0.868986 0.8 -1.8659
vt -34.2121 31.4961
f 1/1/1 2/2/1 3/3/1 4/4/1 

vt 29.2905 73.4608
vn 0 1 -0
v 0.743979 0.7 -1.0159
vt 29.2905 39.9962
v 0.868986 0.7 -1.0159
vt 34.2121 39.9962
vt 34.2121 73.4608
f 2/5/2 5/6/2 6/7/2 1/8/2 

v 0.371818 0.7 -1.8659
vt 14.6385 73.4608
v 0.371818 0.7 -1.0159
vt 14.6385 39.9962
f 5/6/2 2/5/2 7/9/2 8/10/2 

vt -73.4608 27.5591
vn -1 0 -0
vt -39.9962 27.5591
v 0.371818 0.8 -1.0159
vt -39.9962 31.4961
v 0.371818 0.8 -1.8659
vt -73.4608 31.4961
f 7/11/3 8/12/3 9/13/3 10/14/3 

v 0.868986 0.8 -1.0159
vt 34.2121 31.4961
vn 0 0 1
v 0.743979 0.8 -1.0159
vt 29.2905 31.4961
vt 29.2905 27.5591
vt 34.2121 27.5591
f 11/15/4 12/16/4 5/17/4 6/18/4 

f 4/8/2 3/5/2 12/6/2 11/7/2 

v 0.743979 0.7 -1.92289
vt -75.7042 27.5591
v 0.743979 0.88 -1.0159
vt -39.9962 34.6457
v 0.743979 0.88 -1.92289
vt -75.7042 34.6457
f 13/19/3 2/11/3 3/14/3 12/13/3 14/20/3 15/21/3 

v 0.743979 0.7 -0.975905
vt -38.4214 27.5591
v 0.743979 0.8 -0.975905
vt -38.4214 31.4961
v 0.743979 0.8 -0.125905
vt -4.95687 31.4961
v 0.743979 0.88 -0.125905
vt -4.95687 34.6457
f 5/12/3 16/22/3 17/23/3 18/24/3 19/25/3 14/20/3 12/13/3 

v 0.868986 0.7 -0.975905
v 0.868986 0.8 -0.975905
f 20/1/1 16/2/1 17/3/1 21/4/1 

vt 29.2905 38.4214
v 0.743979 0.7 -0.125905
vt 29.2905 4.95687
v 0.868986 0.7 -0.125905
vt 34.2121 4.95687
vt 34.2121 38.4214
f 16/26/2 22/27/2 23/28/2 20/29/2 

v 0.371818 0.7 -0.975905
vt 14.6385 38.4214
v 0.371818 0.7 -0.125905
vt 14.6385 4.95687
f 22/27/2 16/26/2 24/30/2 25/31/2 

v 0.868986 0.8 -0.125905
f 26/15/4 18/16/4 22/17/4 23/18/4 

f 21/29/2 17/26/2 18/27/2 26/28/2 

vt -4.95687 27.5591
f 20/22/3 23/32/3 26/24/3 21/23/3 

v 0.743979 0.7 -0.0528877
vt -2.08219 27.5591
v 0.743979 0.88 -0.0528877
vt -2.08219 34.6457
f 22/32/3 27/33/3 28/34/3 19/25/3 18/24/3 

f 1/11/3 6/12/3 11/13/3 4/14/3 

g Mesh2 Group1 Model

v 2.61 0 -0
vt -102.756 0
vn 0 -1 -0
v 2.41 0 -0
vt -94.8819 0
v 2.41 0 -0.2
vt -94.8819 7.87402
v 2.61 0 -0.2
vt -102.756 7.87402
f 29/35/5 30/36/5 31/37/5 32/38/5 

vt -7.87402 0
vt 0 0
v 2.41 0.29 -0
vt 0 11.4173
v 2.41 0.29 -0.2
vt -7.87402 11.4173
f 31/39/3 30/40/3 33/41/3 34/42/3 

v 0.2 0.29 -0
v 0.2 0.29 -0.2
vt -7.87402 7.87402
v 0 0.29 -0.2
vt 0 7.87402
v 0 0.29 -1.78
vt 0 70.0787
v 0.2 0.29 -1.78
vt -7.87402 70.0787
v 0.2 0.29 -1.98
vt -7.87402 77.9528
v 2.41 0.29 -1.98
vt -94.8819 77.9528
v 2.41 0.29 -1.78
vt -94.8819 70.0787
v 2.61 0.29 -1.78
vt -102.756 70.0787
v 2.61 0.29 -0.2
f 33/36/5 35/39/5 36/43/5 37/44/5 38/45/5 39/46/5 40/47/5 41/48/5 42/49/5 43/50/5 44/38/5 34/37/5 

v 0.2 0 -0
vn 1 0 -0
v 0.2 0 -0.2
vt 7.87402 0
vt 7.87402 11.4173
f 45/40/6 46/51/6 36/52/6 35/41/6 

v 0 0 -0
v 0 0 -0.2
f 47/40/5 48/44/5 46/43/5 45/39/5 

f 46/39/1 48/40/1 37/41/1 36/42/1 

v 0 0 -1.78
v 0.2 0 -1.78
f 49/40/4 50/51/4 39/52/4 38/41/4 

v 0 0 -1.98
vt 0 77.9528
v 0.2 0 -1.98
f 51/53/5 52/47/5 50/46/5 49/45/5 

vt 70.0787 0
vt 77.9528 0
vt 77.9528 11.4173
vt 70.0787 11.4173
f 50/54/6 52/55/6 40/56/6 39/57/6 

v 2.41 0 -1.98
vt -77.9528 0
v 2.41 0 -1.78
vt -70.0787 0
vt -70.0787 11.4173
vt -77.9528 11.4173
f 53/58/3 54/59/3 42/60/3 41/61/3 

v 2.61 0 -1.98
vt -102.756 77.9528
v 2.61 0 -1.78
f 55/62/5 56/50/5 54/49/5 53/48/5 

v 2.61 0.7 -1.98
vt 77.9528 27.5591
v 2.61 0.7 -0
vt 0 27.5591
f 29/40/6 32/51/6 44/52/6 43/57/6 56/54/6 55/55/6 57/63/6 58/64/6 

vt -94.8819 11.4173
vt -102.756 11.4173
f 32/35/1 31/36/1 34/65/1 44/66/1 

vt 94.8819 0
vt 102.756 0
vt 102.756 11.4173
vt 94.8819 11.4173
f 54/67/4 56/68/4 43/69/4 42/70/4 

g Mesh3 Group2 Model

vt 14.652 0
v 0.743979 0.8 -0.125905
vt 14.652 3.93701
v 0.371818 0.8 -0.125905
vt 0 3.93701
f 25/40/4 22/71/4 59/72/4 60/73/4 

v 0.743979 0.8 -0.975905
vt 14.652 33.4646
v 0.371818 0.8 -0.975905
vt 0 33.4646
f 61/74/2 62/75/2 60/40/2 59/71/2 

vt -14.652 3.93701
v 0.743979 0.7 -0.975905
vt -14.652 0
v 0.371818 0.7 -0.975905
f 62/73/1 61/76/1 63/77/1 64/40/1 

g Mesh4 Group2 Model

v 0.371818 0.8 -1.8659
vt -6.64414e-14 3.93701
vn -9.69892e-16 0 -1
v 0.743979 0.8 -1.8659
vt -6.64414e-14 0
f 65/78/7 66/76/7 2/77/7 7/79/7 

vt 0 68.5039
v 0.371818 0.8 -1.0159
vt 0 35.0394
v 0.743979 0.8 -1.0159
vt 14.652 35.0394
vt 14.652 68.5039
f 65/80/2 67/81/2 68/82/2 66/83/2 

f 8/40/4 5/71/4 68/72/4 67/73/4 

g Mesh5 Group3 Model

v 2.55398 0.7 -0.0528877
vt 0 2.45742e-30
vn 1 -3.44853e-32 -0
v 2.55398 0.7 -1.92289
vt 73.622 2.45742e-30
v 2.55398 0.88 -1.92289
vt 73.622 7.08661
v 2.55398 0.88 -0.0528877
vt 0 7.08661
f 69/84/8 70/85/8 71/86/8 72/87/8 

vt -71.2598 7.41894e-31
vn 0 -1.00771e-32 -1
vt 0 7.41894e-31
v 0.743979 0.88 -1.92289
vt -71.2598 7.08661
f 70/88/9 13/89/9 73/87/9 71/90/9 

vt 0 73.622
v 0.743979 0.88 -1.0159
vt 0 37.914
v 0.743979 0.88 -0.125905
vt 0 2.87468
v 0.743979 0.88 -0.0528877
vt 71.2598 0
vt 71.2598 73.622
f 73/91/2 74/92/2 75/93/2 76/40/2 72/94/2 71/95/2 

vn 0 1.00771e-32 1
vt 71.2598 7.08661
f 27/40/10 69/94/10 72/96/10 76/87/10 

g Mesh6 Group4 Model

v 0 1.22 -0
v 0.328986 1.22 -0
vt 12.9522 0
v 0.328986 1.22 -1.98
vt 12.9522 77.9528
v 0 1.22 -1.98
f 77/40/2 78/97/2 79/98/2 80/53/2 

vt 102.756 27.5591
v 0.328986 0.7 -0
vt 12.9522 27.5591
vt 12.9522 48.0315
vt 0 48.0315
f 47/40/4 45/51/4 35/52/4 33/70/4 30/67/4 29/68/4 58/99/4 81/100/4 78/101/4 77/102/4 

vt -77.9528 48.0315
f 51/58/3 49/59/3 38/60/3 37/42/3 48/39/3 47/40/3 77/102/3 80/103/3 

vt -12.9522 48.0315
v 0.328986 0.7 -1.98
vt -12.9522 27.5591
vt -102.756 27.5591
f 55/35/1 53/36/1 41/65/1 40/42/1 52/39/1 51/40/1 80/102/1 79/104/1 82/105/1 57/106/1 

g Mesh7 Model

f 81/97/2 25/31/2 82/98/2

vt 29.2905 2.08219
f 25/31/2 81/97/2 27/107/2

f 27/107/2 81/97/2 58/68/2

vt 100.55 2.08219
f 27/107/2 58/68/2 69/108/2

vt 100.55 75.7042
f 69/108/2 58/68/2 70/109/2

vt 102.756 77.9528
f 57/110/2 70/109/2 58/68/2

vt 29.2905 75.7042
f 57/110/2 13/111/2 70/109/2

f 82/98/2 13/111/2 57/110/2

f 13/111/2 82/98/2 7/9/2

f 7/9/2 82/98/2 25/31/2

f 7/9/2 25/31/2 24/30/2

v 0.371818 0.8 -0.125905
v 0.371818 0.8 -0.975905
f 24/22/3 25/32/3 83/24/3 84/23/3 

f 7/9/2 24/30/2 8/10/2

f 16/26/2 8/10/2 24/30/2

f 8/10/2 16/26/2 5/6/2

f 13/111/2 7/9/2 2/5/2

f 22/27/2 25/31/2 27/107/2

vt 77.9528 48.0315
f 81/64/6 82/63/6 79/112/6 78/102/6 

