# Alias OBJ Model File
# Exported from SketchUp, (c) 2000-2012 Trimble Navigation Limited
# File units = meters

mtllib Shelf.mtl

g Mesh1 Group1 Model

usemtl FrontColor
v 2.16 0 -0
vt -85.0394 0
vn 0 -1 -0
v 0 0 -0
vt 0 0
v 0 0 -0.8
vt 0 31.4961
v 2.16 0 -0.8
vt -85.0394 31.4961
f 1/1/1 2/2/1 3/3/1 4/4/1 

g Mesh2 Group2 Model

v 0 0.15 -0
vn 0 1 -0
v 2.16 0.15 -0
vt 85.0394 0
v 2.16 0.15 -0.8
vt 85.0394 31.4961
v 0 0.15 -0.8
f 5/2/2 6/5/2 7/6/2 8/3/2 

vn 0 0 1
vt 85.0394 5.90551
vt 0 5.90551
f 2/2/3 1/5/3 6/7/3 5/8/3 

vn 1 0 -0
vt 31.4961 0
vt 31.4961 5.90551
f 1/2/4 4/9/4 7/10/4 6/8/4 

vn 0 0 -1
vt -85.0394 5.90551
f 4/1/5 3/2/5 8/8/5 7/11/5 

vt -31.4961 0
vn -1 0 -0
vt -31.4961 5.90551
f 3/12/6 2/2/6 5/8/6 8/13/6 

