# Alias OBJ Model File
# Exported from SketchUp, (c) 2000-2012 Trimble Navigation Limited
# File units = meters

mtllib tolet.mtl

g Mesh1 Group1 Model

usemtl FrontColor
v 0.63 0 -0
vt -24.8031 0
vn 0 -1 -0
v 2.18982e-20 0 -0
vt -8.62135e-19 0
v 0 3.74409e-19 -0.8
vt 0 31.4961
v 0.63 3.74409e-19 -0.8
vt -24.8031 31.4961
f 1/1/1 2/2/1 3/3/1 4/4/1 

vt 8.62135e-19 0
vn 0 0 1
vt 24.8031 0
v 1.03 0.548689 -0
vt 40.5512 21.6019
v 0.32 0.548689 -0
vt 12.5984 21.6019
v 0.23 1.23 -0
vt 9.05512 48.4252
v 2.18982e-20 1.23 -0
vt 8.62135e-19 48.4252
f 2/5/2 1/6/2 5/7/2 6/8/2 7/9/2 8/10/2 

vt 31.4961 14.6113
vn 0.808068 -0.58909 -0
v 1.03 0.548689 -0.8
vt 31.4961 41.3441
vt 0 41.3441
vt 0 14.6113
f 4/11/3 9/12/3 5/13/3 1/14/3 

vt -24.8031 -1.1645e-15
vn -2.18982e-18 3.74409e-17 -1
vt -6.89708e-17 -1.1645e-15
v 0 1.23 -0.8
vt -6.89708e-17 48.4252
v 0.23 1.23 -0.8
vt -9.05512 48.4252
v 0.32 0.548689 -0.8
vt -12.5984 21.6019
vt -40.5512 21.6019
f 4/15/4 3/16/4 10/17/4 11/18/4 12/19/4 9/20/4 

vt -31.4961 1.47405e-17
vn -1 0 -0
vt 0 0
vt 0 48.4252
vt -31.4961 48.4252
f 3/21/5 2/22/5 8/23/5 10/24/5 

vn 0 1 -0
vt 9.05512 0
vt 9.05512 31.4961
f 8/5/6 7/25/6 11/26/6 10/3/6 

vt -3.70327e-17 46.8223
vn 0.991388 0.130961 -4.05448e-18
vt -5.15238e-17 19.766
vt 31.4961 19.766
vt 31.4961 46.8223
f 7/27/7 6/28/7 12/29/7 11/30/7 

vt 40.5512 0
vt 40.5512 31.4961
vt 12.5984 31.4961
vt 12.5984 0
f 5/31/6 9/32/6 12/33/6 6/34/6 

