# Alias OBJ Model File
# Exported from SketchUp, (c) 2000-2012 Trimble Navigation Limited
# File units = meters

mtllib DESK.mtl

g Mesh1 Group1 Model

usemtl FrontColor
v 0 0 -1.29
vt 0 50.7874
vn 0 -1 -0
v 0.15 0 -1.29
vt -5.90551 50.7874
v 0.15 0 -0
vt -5.90551 0
v 0 0 -0
vt 0 0
f 1/1/1 2/2/1 3/3/1 4/4/1 

vt -4.13106e-16 0
vn 1 0 -6.99527e-17
vt 50.7874 0
v 0.15 0.95 -1.29
vt 50.7874 37.4016
v 0.15 0.95 -0
vt -4.13106e-16 37.4016
f 3/5/2 2/6/2 5/7/2 6/8/2 

v 2.59 0.95 -1.29
vt -101.969 50.7874
v 2.59 0.95 -0
vt -101.969 0
f 5/2/1 7/9/1 8/10/1 6/3/1 

v 2.59 0 -1.29
vt -50.7874 0
vn -1 0 -0
v 2.59 0 -0
vt 0 37.4016
vt -50.7874 37.4016
f 9/11/3 10/4/3 8/12/3 7/13/3 

v 2.74 0 -0
vt -107.874 0
v 2.74 0 -1.29
vt -107.874 50.7874
f 11/14/1 10/10/1 9/9/1 12/15/1 

g Mesh2 Group2 Model

vn 0 0 -1
vt -101.969 37.4016
vt -5.90551 37.4016
v 0 1.37 -1.29
vt 0 53.937
v 2.74 1.37 -1.29
vt -107.874 53.937
f 12/14/4 9/10/4 7/16/4 5/17/4 2/3/4 1/4/4 13/18/4 14/19/4 

v 0 1.37 -0
vt -50.7874 53.937
f 1/11/3 4/4/3 15/18/3 13/20/3 

vn 0 0 1
vt 5.90551 0
vt 5.90551 37.4016
vt 101.969 37.4016
vt 101.969 0
vt 107.874 0
v 2.74 1.37 -0
vt 107.874 53.937
f 4/4/5 3/21/5 6/22/5 8/23/5 10/24/5 11/25/5 16/26/5 15/18/5 

vn 1 0 -0
vt 50.7874 53.937
f 11/4/6 12/6/6 14/27/6 16/18/6 

vn 0 1 -0
vt 107.874 50.7874
f 15/4/7 16/25/7 14/28/7 13/1/7 

