# Alias OBJ Model File
# Exported from SketchUp, (c) 2000-2012 Trimble Navigation Limited
# File units = meters

mtllib Laptop.mtl

g Mesh1 Group1 Model

usemtl FrontColor
v 0.000297699 0.312062 -0.2028
vt 0 10.5324
vn 0.0585624 -1.22671e-19 0.998284
v 0.000297699 0.0231364 -0.2028
vt 0 6.66134e-16
v 0.1844 0.0231364 -0.2136
vt 6.72276 6.01853e-36
v 0.1844 0.312062 -0.2136
vt 6.72276 10.5324
f 1/1/1 2/2/1 3/3/1 4/4/1 

vt 6.71122 10.5324
vn -3.52496e-17 2.63525e-18 1
vt 6.71122 1.0375e-18
v 0.206 0.0231364 -0.2136
vt 7.49863 1.0375e-18
v 0.206 0.312062 -0.2136
vt 7.49863 10.5324
f 4/5/2 3/6/2 5/7/2 6/8/2 

vt 7.46243 10.5324
vn -0.0588826 1.99815e-18 0.998265
vt 7.46243 1.66757e-18
v 0.389098 0.0231364 -0.2028
vt 14.1486 1.66757e-18
v 0.389098 0.312062 -0.2028
vt 14.1486 10.5324
f 6/9/3 5/10/3 7/11/3 8/12/3 

g Mesh2 Group2 Model

v 0.206 0.324 -0.2136
vt 7.83717 11.811
vn -0.0588826 -7.31555e-17 0.998265
vt 7.83717 11.3759
vt 14.5234 11.3759
v 0.389098 0.324 -0.2028
vt 14.5234 11.811
f 9/13/4 6/14/4 8/15/4 10/16/4 

v 0.1844 0.324 -0.2136
vt 7.08661 11.811
vn 2.64244e-33 -1.27562e-16 1
vt 7.08661 11.3759
vt 7.87402 11.3759
vt 7.87402 11.811
f 11/17/5 4/18/5 6/19/5 9/20/5 

v 0.000297699 0.324 -0.2028
vt 0.374746 11.811
vn 0.0585624 -4.4912e-18 0.998284
v 0.000297699 0.312062 -0.2028
vt 0.374746 11.3759
vt 7.09751 11.3759
vt 7.09751 11.811
f 12/21/6 13/22/6 4/23/6 11/24/6 

v -0.01 0 -0.2028
vt 0 0
vn 0 0 1
v 0.000297699 0 -0.2028
vt 0.37539 0
v 0.000297699 0.0231364 -0.2028
vt 0.37539 0.843409
vt 0.37539 11.3759
vt 0.37539 11.811
v -0.01 0.324 -0.2028
vt 0 11.811
f 14/25/7 15/26/7 16/27/7 13/28/7 12/29/7 17/30/7 

v 0.1844 0 -0.2136
vt 7.09751 -1.91589e-19
vn 0.0585624 8.71503e-18 0.998284
v 0.1844 0.0231364 -0.2136
vt 7.09751 0.843409
vt 0.374746 0.843409
vt 0.374746 -1.91589e-19
f 18/31/8 19/32/8 16/33/8 15/34/8 

v 0.206 0 -0.2136
vt 7.87402 1.29562e-17
vn -3.52496e-17 3.29088e-17 1
v 0.206 0.0231364 -0.2136
vt 7.87402 0.843409
vt 7.08661 0.843409
vt 7.08661 1.29562e-17
f 20/35/9 21/36/9 19/37/9 18/38/9 

v 0.389098 0 -0.2028
vt 14.5234 0
vn -0.0588826 0 0.998265
v 0.389098 0.0231364 -0.2028
vt 14.5234 0.843409
vt 7.83717 0.843409
vt 7.83717 0
f 22/39/10 23/40/10 21/41/10 20/42/10 

vt 14.5486 11.811
vt 14.5486 11.3759
vt 14.5486 0.843409
vt 14.5486 0
v 0.4004 0 -0.2028
vt 14.9606 0
v 0.4004 0.324 -0.2028
vt 14.9606 11.811
f 10/43/7 8/44/7 23/45/7 22/46/7 24/47/7 25/48/7 

g Mesh3 Group3 Model

v -0.01 0.324 -0.2298
vt 0 0.984252
vn 0 1 -0
vt 7.08661 0.393701
vt 7.87402 0.393701
v 0.4004 0.324 -0.2298
vt 14.9606 0.984252
v 0.2492 0.324 -0.2514
vt 9.44882 1.77165
v 0.1412 0.324 -0.2514
vt 5.51181 1.77165
f 26/49/11 17/25/11 12/26/11 11/50/11 9/51/11 10/46/11 25/47/11 27/52/11 28/53/11 29/54/11 

v -0.01 0 -0.3
vt -3.54331 0
vn -1 0 -0
vt -0.984252 11.811
v -0.01 0.0324 -0.2298
vt -0.984252 1.1811
v -0.01 0.0324 -0.3
vt -3.54331 1.1811
f 30/55/12 14/25/12 17/30/12 26/56/12 31/57/12 32/58/12 

v 0.4004 0 -0.3
vt -14.9606 0
vn 0 0 -1
vt 0 1.1811
v 0.1412 0.0324 -0.3
vt -5.51181 1.1811
v 0.1412 0.1404 -0.3
vt -5.51181 5.11811
v 0.2492 0.1404 -0.3
vt -9.44882 5.11811
v 0.2492 0.0216 -0.3
vt -9.44882 0.787402
v 0.4004 0.0216 -0.3
vt -14.9606 0.787402
f 33/59/13 30/25/13 32/60/13 34/61/13 35/62/13 36/63/13 37/64/13 38/65/13 

vn 1 0 -0
vt 3.54331 0
vt 3.54331 0.787402
v 0.4004 0.0216 -0.2298
vt 0.984252 0.787402
vt 0.984252 11.811
f 24/25/14 33/66/14 38/67/14 39/68/14 27/69/14 25/30/14 

g Mesh4 Group4 Model

v 0.1412 0.324 -0.2514
vt -5.51181 11.0236
v 0.2492 0.324 -0.2514
vt -9.44882 11.0236
v 0.2492 0.1404 -0.2514
vt -9.44882 4.33071
v 0.1412 0.1404 -0.2514
vt -5.51181 4.33071
f 40/70/13 41/71/13 42/72/13 43/73/13 

vt -9.2425 11.0236
vn 0.141421 0 -0.989949
vt -14.8103 11.0236
vt -14.8103 0
v 0.2492 0.0216 -0.2514
vt -9.2425 0
vt -9.2425 4.33071
f 41/74/15 27/75/15 39/76/15 44/77/15 42/78/15 

vt 14.9606 2.55906
vt 9.44882 2.55906
vt 9.44882 0.787402
vt 14.9606 1.11022e-16
f 38/79/11 37/80/11 44/81/11 39/82/11 

vt 5.51181 2.55906
vt 5.51181 0.787402
f 35/83/11 43/84/11 42/81/11 36/80/11 

vt 0 11.0236
vn -0.141421 0 -0.989949
vt -5.56777 11.0236
vt -5.56777 4.33071
v 0.1412 0.0324 -0.2514
vt -5.56777 0.393701
vt 0 0.393701
f 26/85/16 40/86/16 43/87/16 45/88/16 31/89/16 

vt 0 2.55906
f 32/90/11 31/25/11 45/84/11 34/83/11 

g Mesh5 Group6 Model

v 0.00910578 0.02 -0.00792194
vt 0 0.0537074
v 0.0846839 0.02 -0.00792194
vt 2.97552 0.0537074
v 0.0846839 0.02 -0.0251235
vt 2.97552 0.730935
v 0.205702 0.02 -0.0251235
vt 7.74003 0.730935
v 0.205702 0.02 -0.00792194
vt 7.74003 0.0537074
v 0.289106 0.02 -0.00792194
vt 11.0236 0.0537074
v 0.289106 0.02 -0.117922
vt 11.0236 4.38442
v 0.00910578 0.02 -0.117922
vt 0 4.38442
f 46/91/11 47/92/11 48/93/11 49/94/11 50/95/11 51/96/11 52/97/11 53/98/11 

f 47/92/11 50/95/11 49/94/11 48/93/11 

g Mesh6 Group6 Model

v 0.380625 0.02 -0.116558
vt 14.6267 4.33071
v 0.300625 0.02 -0.116558
vt 11.4771 4.33071
v 0.300625 0.02 -0.00655777
vt 11.4771 0
v 0.380625 0.02 -0.00655777
vt 14.6267 0
f 54/99/11 55/100/11 56/101/11 57/102/11 

g Mesh7 Group7 Model

v 0.39 0 -0.13
vt -15.3543 0
v 0 0 -0.13
v 0 0.02 -0.13
vt 0 0.787402
v 0.39 0.02 -0.13
vt -15.3543 0.787402
f 58/103/13 59/25/13 60/104/13 61/105/13 

vt -15.3543 5.11811
vn 0 -1 -0
v 0.39 0 -0
v 0 0 -0
vt 0 5.11811
f 58/106/17 62/103/17 63/25/17 59/107/17 

vt 5.11811 0
vt 5.11811 0.787402
v 0.39 0.02 -0
f 62/25/14 58/108/14 61/109/14 64/104/14 

vt 15.3543 0
vt 15.3543 5.11811
v 0 0.02 -0
f 64/110/11 61/111/11 60/107/11 65/25/11 

vt -5.11811 0
vt -5.11811 0.787402
f 59/112/12 63/25/12 65/104/12 60/113/12 

vt 15.3543 0.787402
f 63/25/7 62/110/7 64/114/7 65/104/7 

g Mesh8 Group8 Model

v 0.441386 0.001 6.00622e-05
v 0.481459 0.001 -0.0387513
vt 1.57767 1.52801
v 0.441386 0.001 -0.17994
vt 0 7.08661
f 66/25/11 67/115/11 68/116/11

v 0.571386 0.001 6.00622e-05
f 67/115/11 66/25/11 69/108/11

v 0.441386 0 6.00622e-05
v 0.571386 0 6.00622e-05
vt 5.11811 0.0393701
vt 0 0.0393701
f 70/25/7 71/108/7 69/117/7 66/118/7 

v 0.441386 0 -0.17994
v 0.571386 0 -0.17994
vt -5.11811 7.08661
f 72/116/17 73/119/17 71/112/17 70/25/17 

v 0.571386 0.001 -0.17994
vt -5.11811 0.0393701
f 73/112/13 72/25/13 68/118/13 74/120/13 

vt -7.08661 0
vt -7.08661 0.0393701
f 72/121/12 70/25/12 66/118/12 68/122/12 

v 0.481459 0.001 -0.128751
vt 1.57767 5.07131
vt 5.11811 7.08661
f 68/116/11 75/123/11 74/124/11

f 75/123/11 68/116/11 67/115/11

v 0.531459 0.001 -0.128751
vt 3.54618 5.07131
f 74/124/11 75/123/11 76/125/11

f 74/124/11 76/125/11 69/108/11

v 0.531459 0.001 -0.0387513
vt 3.54618 1.52801
f 77/126/11 69/108/11 76/125/11

f 67/115/11 69/108/11 77/126/11

vt 7.08661 0
vt 7.08661 0.0393701
f 71/25/14 73/127/14 74/128/14 69/118/14 

g Mesh9 Group9 Model

v 0.531459 0.021 -0.128751
v 0.531459 0.021 -0.0987513
vt 2.3622 0.787402
v 0.531459 0.021 -0.0387513
f 77/25/14 76/66/14 78/67/14 79/129/14 80/104/14 

vt -1.9685 0
v 0.481459 0.001 -0.128751
v 0.481459 0.021 -0.128751
v 0.505459 0.021 -0.128751
vt -0.944882 0.787402
v 0.505459 0.02 -0.128751
vt -0.944882 0.748031
v 0.507459 0.02 -0.128751
vt -1.02362 0.748031
v 0.507459 0.021 -0.128751
vt -1.02362 0.787402
vt -1.9685 0.787402
f 76/130/13 81/25/13 82/104/13 83/131/13 84/132/13 85/133/13 86/134/13 78/135/13 

v 0.481459 0.001 -0.0387513
v 0.481459 0.021 -0.0387513
v 0.481459 0.021 -0.0987513
vt -2.3622 0.787402
vt -3.54331 0.787402
f 81/55/12 87/25/12 88/104/12 89/136/12 82/137/12 

vt 1.9685 0
vt 1.9685 0.787402
f 87/25/7 77/138/7 80/139/7 88/104/7 

v 0.505459 0.021 -0.122758
vt 3.30733 0.787402
v 0.505459 0.02 -0.122758
vt 3.30733 0.748031
vt 3.54331 0.748031
f 83/67/14 90/140/14 91/141/14 84/142/14 

v 0.507459 0.022 -0.122758
vt -1.02362 0.826772
v 0.507459 0.021 -0.122758
v 0.507459 0.02 -0.122758
v 0.505459 0.022 -0.122758
vt -0.944882 0.826772
f 92/143/13 93/134/13 94/133/13 91/132/13 90/131/13 95/144/13 

v 0.507459 0.021 -0.104998
vt 2.60815 0.787402
vt 3.30733 0.826772
v 0.507459 0.022 -0.104998
vt 2.60815 0.826772
f 96/145/14 93/140/14 92/146/14 97/147/14 

vt 1.02362 3.30733
vt 0.944882 3.30733
v 0.505459 0.022 -0.104998
vt 0.944882 2.60815
vt 1.02362 2.60815
f 92/148/11 95/149/11 98/150/11 97/151/11 

vt -3.30733 0.787402
v 0.505459 0.021 -0.104998
vt -2.60815 0.787402
vt -2.60815 0.826772
vt -3.30733 0.826772
f 90/152/12 99/153/12 98/154/12 95/155/12 

vt 0.944882 0.826772
vt 0.944882 0.787402
v 0.505459 0.02 -0.104998
vt 0.944882 0.748031
v 0.507459 0.02 -0.104998
vt 1.02362 0.748031
vt 1.02362 0.787402
vt 1.02362 0.826772
f 98/156/7 99/157/7 100/158/7 101/159/7 96/160/7 97/161/7 

v 0.505459 0.021 -0.0987513
v 0.505459 0.02 -0.0987513
vt 2.3622 0.748031
vt 2.60815 0.748031
f 99/145/14 102/129/14 103/162/14 100/163/14 

v 0.507459 0.021 -0.0987513
v 0.507459 0.02 -0.0987513
f 102/131/13 104/134/13 105/133/13 103/132/13 

vt -2.60815 0.748031
vt -2.3622 0.748031
f 104/136/12 96/153/12 101/164/12 105/165/12 

vt -3.54331 0.748031
vt -3.30733 0.748031
f 93/152/12 86/137/12 85/166/12 94/167/12 

g Mesh10 Group10 Model

vt 1.9685 2.3622
vt 1.02362 2.3622
vt 0.944882 2.3622
vt 0 2.3622
f 80/138/11 79/168/11 104/169/11 102/170/11 89/171/11 88/25/11 

vt 1.9685 3.54331
vt 1.02362 3.54331
f 93/148/11 96/151/11 104/169/11 79/168/11 78/172/11 86/173/11 

vt 0.944882 3.54331
vt 0 3.54331
f 89/171/11 102/170/11 99/150/11 90/149/11 83/174/11 82/175/11 

g Mesh11 Group10 Model

f 105/169/11 101/151/11 100/150/11 103/170/11 

g Mesh12 Group10 Model

f 94/148/11 85/173/11 84/174/11 91/149/11 

g Mesh13 Model

vt 0.393701 7.98425
vt 0.393701 11.811
vt -15.7638 11.811
vt -15.7638 7.98425
vt -15.3188 7.98425
v 0.206 0 -0.2136
vt -8.11024 8.40945
v 0.1844 0 -0.2136
vt -7.25984 8.40945
v 0.000297699 0 -0.2028
vt -0.0117204 7.98425
f 14/176/17 30/177/17 33/178/17 24/179/17 22/180/17 106/181/17 107/182/17 108/183/17 

g Mesh14 Model

v 0.2492 0.0216 -0.3
vt 11.811 0.850394
v 0.2492 0.1404 -0.3
vt 11.811 5.52756
v 0.2492 0.1404 -0.2514
vt 9.89764 5.52756
v 0.2492 0.0216 -0.2514
vt 9.89764 0.850394
f 109/184/14 110/185/14 111/186/14 112/187/14 

g Mesh15 Model

v 0.1412 0.0324 -0.2514
vt -9.89764 1.27559
v 0.1412 0.1404 -0.2514
vt -9.89764 5.52756
v 0.1412 0.1404 -0.3
vt -11.811 5.52756
v 0.1412 0.0324 -0.3
vt -11.811 1.27559
f 113/188/12 114/189/12 115/190/12 116/191/12 

