# Alias OBJ Model File
# Exported from SketchUp, (c) 2000-2012 Trimble Navigation Limited
# File units = meters

mtllib One_Bed.mtl

g Mesh1 Group1 Model

usemtl FrontColor
v 2.61 0 -1.15
vt -102.756 45.2756
vn 0 -1 -0
v 2.61 0 -0.95
vt -102.756 37.4016
v 2.41 0 -0.95
vt -94.8819 37.4016
v 2.41 0 -1.15
vt -94.8819 45.2756
f 1/1/1 2/2/1 3/3/1 4/4/1 

vt 94.8819 0
vn 0 0 1
vt 102.756 0
v 2.61 0.29 -0.95
vt 102.756 11.4173
v 2.41 0.29 -0.95
vt 94.8819 11.4173
f 3/5/2 2/6/2 5/7/2 6/8/2 

v 2.61 0.29 -0.2
vt -102.756 7.87402
v 2.41 0.29 -0.2
vt -94.8819 7.87402
v 2.41 0.29 -0
vt -94.8819 0
v 0.2 0.29 -0
vt -7.87402 0
v 0.2 0.29 -0.2
vt -7.87402 7.87402
v 0 0.29 -0.2
vt 0 7.87402
v 0 0.29 -0.95
vt 0 37.4016
v 0.2 0.29 -0.95
vt -7.87402 37.4016
v 0.2 0.29 -0.97
vt -7.87402 38.189
v 0.2 0.29 -1.15
vt -7.87402 45.2756
v 2.41 0.29 -1.15
f 6/3/1 5/2/1 7/9/1 8/10/1 9/11/1 10/12/1 11/13/1 12/14/1 13/15/1 14/16/1 15/17/1 16/18/1 17/4/1 

v 2.61 0 -0.2
vt -102.756 0
vn 0 0 -1
v 2.41 0 -0.2
vt -94.8819 11.4173
vt -102.756 11.4173
f 18/19/3 19/11/3 8/20/3 7/21/3 

v 2.61 0 -0
v 2.41 0 -0
f 20/19/1 21/11/1 19/10/1 18/9/1 

vn -1 0 -0
vt 0 0
vt 0 11.4173
vt -7.87402 11.4173
f 19/12/4 21/22/4 9/23/4 8/24/4 

v 0.2 0 -0
vn 1 0 -0
v 0.2 0 -0.2
vt 7.87402 0
vt 7.87402 11.4173
f 22/22/5 23/25/5 11/26/5 10/23/5 

v 0 0 -0
v 0 0 -0.2
f 24/22/1 25/14/1 23/13/1 22/12/1 

f 23/12/3 25/22/3 12/23/3 11/24/3 

v 0 0 -0.95
v 0.2 0 -0.95
f 26/22/2 27/25/2 14/26/2 13/23/2 

v 0.2 0 -1.15
v 0 0 -1.15
vt 0 45.2756
f 28/18/1 27/16/1 26/15/1 29/27/1 

vt 37.4016 11.4173
vt 37.4016 0
vt 45.2756 0
vt 45.2756 11.4173
vt 38.189 11.4173
f 14/28/5 27/29/5 28/30/5 16/31/5 15/32/5 

vt -37.4016 0
vt -37.4016 11.4173
vt -45.2756 11.4173
vt -45.2756 0
f 3/33/4 6/34/4 17/35/4 4/36/4 

g Mesh2 Group1 Model

v 0.743979 0.7 -0.975905
vt -38.4214 27.5591
v 0.743979 0.7 -0.155905
vt -6.13798 27.5591
v 0.743979 0.8 -0.155905
vt -6.13798 31.4961
v 0.743979 0.8 -0.975905
vt -38.4214 31.4961
f 30/37/4 31/38/4 32/39/4 33/40/4 

g Mesh3 Group2 Model

v 0.743979 0.7 -1.06289
vt -38.9764 0
vt -35.5518 0
v 0.743979 0.8 -0.975905
vt -35.5518 3.93701
v 0.743979 0.8 -0.155905
vt -3.26838 3.93701
v 0.743979 0.7 -0.155905
vt -3.26838 0
v 0.743979 0.7 -0.125905
vt -2.08728 0
v 0.743979 0.7 -0.0728877
v 0.743979 0.88 -0.0728877
vt 0 7.08661
v 0.743979 0.88 -1.06289
vt -38.9764 7.08661
f 34/41/4 30/42/4 35/43/4 36/44/4 37/45/4 38/46/4 39/22/4 40/47/4 41/48/4 

v 2.55398 0.7 -0.0728877
vt 71.2598 0
v 2.55398 0.88 -0.0728877
vt 71.2598 7.08661
f 39/22/2 42/49/2 43/50/2 40/47/2 

v 2.55398 0.7 -1.06289
vt 38.9764 0
v 2.55398 0.88 -1.06289
vt 38.9764 7.08661
f 42/22/5 44/51/5 45/52/5 43/47/5 

vt -71.2598 0
vt -71.2598 7.08661
f 44/53/3 34/22/3 41/47/3 45/54/3 

vt 71.2598 38.9764
vn 0 1 -0
vt 0 38.9764
f 45/55/6 41/56/6 40/22/6 43/49/6 

g Mesh4 Group3 Model

v 0.371818 0.8 -0.155905
vt 0 3.93701
v 0.371818 0.7 -0.155905
vt 14.652 0
v 0.743979 0.8 -0.155905
vt 14.652 3.93701
f 46/57/2 47/22/2 31/58/2 48/59/2 

v 0.371818 0.8 -0.975905
vt -32.2835 3.93701
v 0.371818 0.7 -0.975905
vt -32.2835 0
f 49/60/4 50/61/4 47/22/4 46/57/4 

v 0.743979 0.8 -0.975905
vt -14.652 3.93701
v 0.743979 0.7 -0.975905
vt -14.652 0
f 49/57/3 51/62/3 52/63/3 50/22/3 

vt 0 32.2835
vt 14.652 32.2835
f 49/64/6 46/22/6 48/58/6 51/65/6 

g Mesh5 Group4 Model

v 0.328986 0.7 -0
vt 0 27.5591
v 0.328986 0.7 -1.15
vt 45.2756 27.5591
v 0.328986 1.22 -1.15
vt 45.2756 48.0315
v 0.328986 1.22 -0
vt 0 48.0315
f 53/66/5 54/67/5 55/68/5 56/69/5 

vt 12.9522 0
vt 14.6385 6.13798
vt 12.9522 45.2756
f 53/70/6 47/71/6 54/72/6

v 2.61 0.7 -0
f 47/71/6 53/70/6 57/6/6

vt 102.756 27.5591
vt 12.9522 27.5591
vt 12.9522 48.0315
v 0 1.22 -0
f 24/22/2 22/25/2 10/26/2 9/8/2 21/5/2 20/6/2 57/73/2 53/74/2 56/75/2 58/69/2 

v 2.61 0.7 -1.15
f 20/22/5 18/25/5 7/26/5 5/28/5 2/29/5 1/30/5 59/67/5 57/66/5 

v 0 1.22 -1.15
vt -12.9522 48.0315
vt -12.9522 27.5591
vt -102.756 27.5591
f 1/19/3 4/11/3 17/20/3 16/24/3 28/12/3 29/22/3 60/69/3 55/76/3 54/77/3 59/78/3 

f 58/22/6 56/70/6 55/72/6 60/27/6 

v 0.371818 0.7 -0.975905
vt 14.6385 38.4214
vt 102.756 45.2756
f 54/72/6 61/79/6 59/80/6

f 61/79/6 54/72/6 47/71/6

vt 29.2905 38.4214
f 59/80/6 61/79/6 30/81/6

f 59/80/6 30/81/6 57/6/6

vt 29.2905 6.13798
f 31/82/6 57/6/6 30/81/6

f 47/71/6 57/6/6 31/82/6

g Mesh6 Model

vt -45.2756 48.0315
f 26/33/4 13/34/4 12/24/4 25/12/4 24/22/4 58/69/4 60/83/4 29/36/4 

g Mesh7 Model

v 0.868986 0.7 -0.975905
vt -34.2121 27.5591
vt -29.2905 27.5591
vt -29.2905 31.4961
v 0.868986 0.8 -0.975905
vt -34.2121 31.4961
f 62/84/3 30/85/3 33/86/3 63/87/3 

