# Alias OBJ Model File
# Exported from SketchUp, (c) 2000-2012 Trimble Navigation Limited
# File units = meters

mtllib TV.mtl

g Mesh1 Group1 Model

usemtl FrontColor
v 0 0 -0.54
vt -21.2598 0
vn -1 0 -0
v 0 0 -0
vt 0 0
v 0 0.04 -0
vt 0 1.5748
v 0 0.04 -0.54
vt -21.2598 1.5748
f 1/1/1 2/2/1 3/3/1 4/4/1 

v 0.79 0 -0.54
vt -31.1024 21.2598
vn 0 -1 -0
v 0.79 0 -0
vt -31.1024 0
vt 0 21.2598
f 5/5/2 6/6/2 2/2/2 1/7/2 

vn 1 0 -0
vt 21.2598 0
v 0.79 0.04 -0.54
vt 21.2598 1.5748
v 0.79 0.04 -0
f 6/2/3 5/8/3 7/9/3 8/3/3 

vn 0 0 -1
vt -31.1024 1.5748
f 5/6/4 1/2/4 4/3/4 7/10/4 

vt 31.1024 0
vn 0 1 -0
vt 31.1024 21.2598
f 8/11/5 7/12/5 4/7/5 3/2/5 

vn 0 0 1
vt 31.1024 1.5748
f 2/2/6 6/11/6 8/13/6 3/3/6 

